<svg xmlns="http://www.w3.org/2000/svg" viewBox="0 0 64 64" role="img" aria-label="Holy Ghostwriter favicon">
  <g fill="none" stroke="#38b6ff" stroke-width="5" stroke-linecap="round" stroke-linejoin="round">
    <rect x="12" y="12" width="40" height="40" rx="6"/>

    <line x1="22" y1="6" x2="22" y2="12"/>
    <line x1="32" y1="6" x2="32" y2="12"/>
    <line x1="42" y1="6" x2="42" y2="12"/>

    <line x1="22" y1="52" x2="22" y2="58"/>
    <line x1="32" y1="52" x2="32" y2="58"/>
    <line x1="42" y1="52" x2="42" y2="58"/>

    <line x1="6" y1="22" x2="12" y2="22"/>
    <line x1="6" y1="32" x2="12" y2="32"/>
    <line x1="6" y1="42" x2="12" y2="42"/>

    <line x1="52" y1="22" x2="58" y2="22"/>
    <line x1="52" y1="32" x2="58" y2="32"/>
    <line x1="52" y1="42" x2="58" y2="42"/>

    <line x1="32" y1="20" x2="32" y2="44"/>
    <line x1="24" y1="28" x2="40" y2="28"/>
  </g>
</svg>
