<svg xmlns="http://www.w3.org/2000/svg" viewBox="0 0 128 128" role="img" aria-label="Holy Ghostwriter logo">
  <rect width="128" height="128" rx="26" fill="#f6f3ef"/>
  <g fill="none" stroke="#38b6ff" stroke-width="10" stroke-linecap="round" stroke-linejoin="round">
    <line x1="42" y1="14" x2="42" y2="24"/>
    <line x1="64" y1="14" x2="64" y2="24"/>
    <line x1="86" y1="14" x2="86" y2="24"/>

    <line x1="42" y1="104" x2="42" y2="114"/>
    <line x1="64" y1="104" x2="64" y2="114"/>
    <line x1="86" y1="104" x2="86" y2="114"/>

    <line x1="14" y1="42" x2="24" y2="42"/>
    <line x1="14" y1="64" x2="24" y2="64"/>
    <line x1="14" y1="86" x2="24" y2="86"/>

    <line x1="104" y1="42" x2="114" y2="42"/>
    <line x1="104" y1="64" x2="114" y2="64"/>
    <line x1="104" y1="86" x2="114" y2="86"/>
  </g>

  <rect x="24" y="24" width="80" height="80" rx="18" fill="#38b6ff" stroke="#38b6ff" stroke-width="8"/>

  <g fill="none" stroke="#ffffff" stroke-width="10" stroke-linecap="round" stroke-linejoin="round">
    <line x1="64" y1="36" x2="64" y2="92"/>
    <line x1="42" y1="53" x2="86" y2="53"/>
  </g>
</svg>
